<?xml version="1.0" encoding="UTF-8"?>
<svg width="24px" height="24px" viewBox="0 0 24 24" version="1.1" xmlns="http://www.w3.org/2000/svg">
    <g stroke="none" stroke-width="1" fill="none" fill-rule="evenodd">
        <path d="M7.5,3 L16.5,3 C19.5375661,3 22,5.46243388 22,8.5 L22,15.5 C22,18.5375661 19.5375661,21 16.5,21 L7.5,21 C4.46243388,21 2,18.5375661 2,15.5 L2,8.5 C2,5.46243388 4.46243388,3 7.5,3 Z M12,7 C9.23857625,7 7,9.23857625 7,12 C7,14.7614237 9.23857625,17 12,17 C14.7614237,17 17,14.7614237 17,12 C17,9.23857625 14.7614237,7 12,7 Z" fill="#6366F1"/>
    </g>
</svg>
